# xmcd
#
# Track frame offsets:
#	150
#	14572
#	28795
#	46710
#	62414
#	67479
#	79343
#	98143
#	114409
#	134501
#	150528
#	167060
#	190246
#	207681
#
# Disc length: 3009 seconds
#
# Revision: 1
# Processed by: cddbd v1.5.1PL2 Copyright (c) Steve Scherf et al.
# Submitted via: EasyCDDAExtractor 5.1.0
#
DISCID=c70bbf0e
DTITLE=Die Jakkie Louw Band - Alles in een glas
DYEAR=2005
DGENRE=
TTITLE0=Drie Pikkewyne
TTITLE1=Matieland
TTITLE2=Rambo die polisiehond
TTITLE3=Pampoene op die dak
TTITLE4=Arende (viool solo)
TTITLE5=Kuiergat (Pretoria)
TTITLE6=Rooiwyn en Savanna
TTITLE7=Blommekind
TTITLE8=Ek en jy en 'n bottel tas
TTITLE9=Party in die Wes-Transvaal
TTITLE10=My lady van Danville
TTITLE11=Engel van my
TTITLE12=Reën in die Kaap
TTITLE13=Drowsy Maggie (viool solo)
EXTD=
EXTT0=
EXTT1=
EXTT2=
EXTT3=
EXTT4=
EXTT5=
EXTT6=
EXTT7=
EXTT8=
EXTT9=
EXTT10=
EXTT11=
EXTT12=
EXTT13=
PLAYORDER=
